<svg width="230" height="92" viewBox="0 0 230 92" fill="none" xmlns="http://www.w3.org/2000/svg">
<mask id="mask0_57_1907" style="mask-type:luminance" maskUnits="userSpaceOnUse" x="120" y="0" width="110" height="83">
<path d="M229.333 0H120V82.6667H229.333V0Z" fill="white"/>
</mask>
<g mask="url(#mask0_57_1907)">
<path d="M160.331 46.6445C160.331 49.0508 159.904 51.3529 159.061 53.5612C158.227 55.7695 157.029 57.7174 155.477 59.3945C153.92 61.0612 152.04 62.3841 149.831 63.3529C147.633 64.3216 145.17 64.8112 142.436 64.8112C139.644 64.8112 137.123 64.3112 134.873 63.3112C132.623 62.3112 130.717 60.9779 129.165 59.3112C127.607 57.6445 126.399 55.707 125.54 53.4987C124.675 51.2904 124.248 49.0091 124.248 46.6445C124.248 44.2279 124.675 41.9154 125.54 39.707C126.399 37.4987 127.607 35.5612 129.165 33.8945C130.717 32.2174 132.623 30.8841 134.873 29.8945C137.123 28.8945 139.644 28.3945 142.436 28.3945C145.17 28.3945 147.633 28.8945 149.831 29.8945C152.04 30.8841 153.92 32.2174 155.477 33.8945C157.029 35.5612 158.227 37.4987 159.061 39.707C159.904 41.9154 160.331 44.2279 160.331 46.6445ZM153.706 46.6445C153.706 43.3945 153.357 40.7643 152.665 38.7487C151.967 36.7227 151.061 35.1549 149.936 34.0404C148.821 32.9154 147.592 32.1602 146.248 31.7695C144.915 31.3685 143.613 31.1654 142.352 31.1654C141.102 31.1654 139.8 31.3685 138.456 31.7695C137.107 32.1602 135.863 32.9154 134.727 34.0404C133.587 35.1549 132.654 36.7227 131.936 38.7487C131.227 40.7643 130.873 43.3945 130.873 46.6445C130.873 49.8424 131.227 52.4518 131.936 54.4779C132.654 56.4935 133.587 58.0612 134.727 59.1862C135.863 60.3008 137.107 61.0508 138.456 61.4362C139.8 61.8268 141.102 62.0195 142.352 62.0195C143.613 62.0195 144.915 61.8268 146.248 61.4362C147.592 61.0508 148.821 60.3008 149.936 59.1862C151.061 58.0612 151.967 56.4935 152.665 54.4779C153.357 52.4518 153.706 49.8424 153.706 46.6445Z" fill="black"/>
<path d="M177.114 63.9779V44.1237C177.114 43.2904 177.182 42.1966 177.323 40.832C177.458 39.457 177.812 38.1133 178.385 36.7904C178.968 35.457 179.864 34.3216 181.073 33.3737C182.281 32.4154 183.974 31.9362 186.156 31.9362C187.739 31.9362 188.958 32.2904 189.823 32.9987C190.682 33.6966 191.323 34.556 191.739 35.582C192.156 36.5977 192.396 37.6602 192.468 38.7695C192.536 39.8841 192.573 40.8529 192.573 41.6862V63.9779H198.489V44.1237C198.489 43.1133 198.578 41.8945 198.76 40.4779C198.953 39.0612 199.349 37.7279 199.948 36.4779C200.557 35.2174 201.427 34.1445 202.552 33.2695C203.687 32.3841 205.239 31.9362 207.198 31.9362C208.625 31.9362 209.781 32.1445 210.656 32.5612C211.541 32.9779 212.229 33.6133 212.718 34.457C213.218 35.2904 213.541 36.3112 213.698 37.5195C213.864 38.7279 213.948 40.1185 213.948 41.6862V63.9779H219.864V39.6654C219.864 38.5977 219.744 37.4049 219.51 36.082C219.286 34.7643 218.786 33.5352 218.01 32.3945C217.244 31.2591 216.135 30.306 214.677 29.5404C213.218 28.7799 211.281 28.3945 208.864 28.3945C208.166 28.3945 207.354 28.4674 206.427 28.6029C205.494 28.7435 204.515 29.0508 203.489 29.5195C202.474 29.9779 201.489 30.6549 200.531 31.5404C199.583 32.4154 198.765 33.5716 198.073 34.9987H197.573C197.291 34.2643 196.896 33.5143 196.385 32.7487C195.885 31.9883 195.239 31.2799 194.448 30.6237C193.656 29.9727 192.708 29.4362 191.614 29.0195C190.531 28.6029 189.224 28.3945 187.698 28.3945C187 28.3945 186.161 28.4779 185.177 28.6445C184.203 28.8008 183.229 29.1133 182.26 29.582C181.286 30.0404 180.369 30.6862 179.51 31.5195C178.646 32.3529 177.937 33.4466 177.385 34.7904H177.114V29.1445H171.177V63.9779H177.114Z" fill="black"/>
</g>
<mask id="mask1_57_1907" style="mask-type:luminance" maskUnits="userSpaceOnUse" x="0" y="0" width="70" height="83">
<path d="M69.3333 0H0V82.6667H69.3333V0Z" fill="white"/>
</mask>
<g mask="url(#mask1_57_1907)">
<path d="M8.14746 15.2266H14.085V34.8724H14.3558C14.8141 33.6641 15.4235 32.6589 16.1891 31.8516C16.9652 31.0339 17.8402 30.3672 18.8141 29.8516C19.7829 29.3411 20.8141 28.9714 21.8975 28.7474C22.9912 28.513 24.0954 28.3932 25.21 28.3932C27.5433 28.3932 29.6787 28.8255 31.6266 29.6849C33.5693 30.5339 35.2516 31.7474 36.6683 33.3307C38.085 34.9141 39.1891 36.8255 39.9808 39.0599C40.7725 41.2839 41.1683 43.763 41.1683 46.4974C41.1683 49.2786 40.7725 51.7995 39.9808 54.0599C39.1891 56.3099 38.085 58.237 36.6683 59.8307C35.2516 61.4297 33.5693 62.6589 31.6266 63.5182C29.6787 64.3776 27.5433 64.8099 25.21 64.8099C19.6943 64.8099 16.0745 62.6536 14.3558 58.3307H14.085V63.9766H8.14746V15.2266ZM14.085 50.0391C14.085 51.5807 14.3245 53.0391 14.8141 54.4141C15.2985 55.7786 15.9808 56.9557 16.8558 57.9557C17.7412 58.9557 18.7777 59.7474 19.96 60.3307C21.137 60.9036 22.4027 61.1849 23.7516 61.1849C25.1943 61.1849 26.5745 60.9245 27.8975 60.3932C29.2152 59.8516 30.361 59.0078 31.335 57.8516C32.3193 56.6849 33.0954 55.1797 33.6683 53.3307C34.2516 51.4714 34.5433 49.2422 34.5433 46.6432C34.5433 43.9922 34.2516 41.7422 33.6683 39.8932C33.0954 38.0339 32.3141 36.513 31.3141 35.3307C30.3141 34.138 29.1579 33.2786 27.8558 32.7474C26.5641 32.2057 25.1943 31.9349 23.7516 31.9349C22.46 31.9349 21.2308 32.2057 20.0641 32.7474C18.9079 33.2786 17.887 34.0703 17.0016 35.1224C16.111 36.1641 15.4027 37.4297 14.8766 38.9141C14.3454 40.388 14.085 42.0807 14.085 43.9974V50.0391Z" fill="black"/>
<path d="M59.3298 15.2266H53.4131V63.9766H59.3298V15.2266Z" fill="black"/>
</g>
<mask id="mask2_57_1907" style="mask-type:luminance" maskUnits="userSpaceOnUse" x="97" y="28" width="23" height="23">
<path d="M97.333 28H119.208V50.6667H97.333V28Z" fill="white"/>
</mask>
<g mask="url(#mask2_57_1907)">
<path d="M108.26 50.2617C114.255 50.2617 119.119 45.3971 119.119 39.4023C119.119 33.4023 114.255 28.543 108.26 28.543C102.26 28.543 97.4004 33.4023 97.4004 39.4023C97.4004 45.3971 102.26 50.2617 108.26 50.2617Z" fill="#ED0040"/>
</g>
<mask id="mask3_57_1907" style="mask-type:luminance" maskUnits="userSpaceOnUse" x="81" y="17" width="25" height="24">
<path d="M81.333 17.6797H105.333V40.0026H81.333V17.6797Z" fill="white"/>
</mask>
<g mask="url(#mask3_57_1907)">
<path d="M93.1973 39.4023C99.1973 39.4023 104.057 34.5378 104.057 28.543C104.057 22.5482 99.1973 17.6836 93.1973 17.6836C87.2025 17.6836 82.3379 22.5482 82.3379 28.543C82.3379 34.5378 87.2025 39.4023 93.1973 39.4023Z" fill="#ED0040"/>
</g>
<mask id="mask4_57_1907" style="mask-type:luminance" maskUnits="userSpaceOnUse" x="67" y="28" width="23" height="23">
<path d="M67.208 28H89.333V50.6667H67.208V28Z" fill="white"/>
</mask>
<g mask="url(#mask4_57_1907)">
<path d="M78.0674 50.2617C84.0622 50.2617 88.9268 45.3971 88.9268 39.4023C88.9268 33.4023 84.0622 28.543 78.0674 28.543C72.0674 28.543 67.208 33.4023 67.208 39.4023C67.208 45.3971 72.0674 50.2617 78.0674 50.2617Z" fill="#ED0040"/>
</g>
<path d="M83.3125 66.5859C89.3073 66.5859 94.1719 61.7266 94.1719 55.7266C94.1719 49.7318 89.3073 44.8672 83.3125 44.8672C77.3125 44.8672 72.4531 49.7318 72.4531 55.7266C72.4531 61.7266 77.3125 66.5859 83.3125 66.5859Z" fill="#ED0040"/>
<path d="M102.979 66.5859C108.974 66.5859 113.839 61.7266 113.839 55.7266C113.839 49.7318 108.974 44.8672 102.979 44.8672C96.9795 44.8672 92.1201 49.7318 92.1201 55.7266C92.1201 61.7266 96.9795 66.5859 102.979 66.5859Z" fill="#ED0040"/>
<path d="M93.167 55.1797C99.318 55.1797 104.302 50.1901 104.302 44.0391C104.302 37.8828 99.318 32.8984 93.167 32.8984C87.0107 32.8984 82.0264 37.8828 82.0264 44.0391C82.0264 50.1901 87.0107 55.1797 93.167 55.1797Z" fill="white"/>
<path d="M48.3252 75.8789V87.8997H47.0544V82.3581H39.5335V87.8997H38.2627V75.8789H39.5335V81.2331H47.0544V75.8789H48.3252Z" fill="black"/>
<path d="M62.5934 78.7969C63.7705 78.7969 64.6768 79.099 65.3018 79.6927C65.9372 80.276 66.2601 81.1458 66.2601 82.2969V87.901H65.0934V86.4844C64.8122 86.9583 64.4111 87.3281 63.8851 87.5885C63.3538 87.8542 62.7236 87.9844 61.9893 87.9844C60.9736 87.9844 60.1663 87.75 59.5726 87.276C58.9736 86.7917 58.6768 86.151 58.6768 85.3594C58.6768 84.599 58.9528 83.9792 59.5101 83.5052C60.0622 83.0365 60.9528 82.7969 62.1768 82.7969H65.0518V82.2552C65.0518 81.4635 64.8278 80.8698 64.3851 80.4635C63.9528 80.0625 63.3226 79.8594 62.4893 79.8594C61.9059 79.8594 61.3486 79.9583 60.8226 80.151C60.307 80.3333 59.8538 80.5885 59.4684 80.9219L58.9268 80.0052C59.3851 79.6198 59.932 79.3177 60.5726 79.1094C61.208 78.901 61.8851 78.7969 62.5934 78.7969ZM62.1768 87.026C62.8538 87.026 63.4372 86.875 63.9268 86.5677C64.4268 86.25 64.8018 85.7917 65.0518 85.1927V83.7135H62.1976C60.6559 83.7135 59.8851 84.25 59.8851 85.3177C59.8851 85.849 60.083 86.2656 60.4893 86.5677C60.8903 86.875 61.4528 87.026 62.1768 87.026Z" fill="black"/>
<path d="M81.6986 78.7969C82.5423 78.7969 83.3079 78.9948 83.9902 79.3802C84.6829 79.7552 85.2246 80.2969 85.6152 81.0052C86.0007 81.7031 86.1986 82.4948 86.1986 83.3802C86.1986 84.2865 86.0007 85.0885 85.6152 85.7969C85.2246 86.4948 84.6882 87.0365 84.0111 87.4219C83.3288 87.7969 82.5579 87.9844 81.6986 87.9844C80.959 87.9844 80.2923 87.8333 79.6986 87.526C79.1152 87.224 78.6361 86.776 78.2611 86.1927V91.2344H77.0527V78.8594H78.2194V80.651C78.5788 80.0573 79.0579 79.599 79.6569 79.276C80.2663 78.9583 80.9486 78.7969 81.6986 78.7969ZM81.6152 86.901C82.2402 86.901 82.8079 86.7552 83.3236 86.4635C83.8496 86.1719 84.2611 85.7656 84.5527 85.2344C84.8444 84.6927 84.9902 84.0781 84.9902 83.3802C84.9902 82.7031 84.8444 82.099 84.5527 81.5677C84.2611 81.026 83.8496 80.6094 83.3236 80.3177C82.8079 80.0156 82.2402 79.8594 81.6152 79.8594C80.9746 79.8594 80.3965 80.0156 79.8861 80.3177C79.3704 80.6094 78.9694 81.026 78.6777 81.5677C78.3861 82.099 78.2402 82.7031 78.2402 83.3802C78.2402 84.0781 78.3861 84.6927 78.6777 85.2344C78.9694 85.7656 79.3704 86.1719 79.8861 86.4635C80.3965 86.7552 80.9746 86.901 81.6152 86.901Z" fill="black"/>
<path d="M100.816 78.7969C101.66 78.7969 102.425 78.9948 103.107 79.3802C103.8 79.7552 104.342 80.2969 104.732 81.0052C105.118 81.7031 105.316 82.4948 105.316 83.3802C105.316 84.2865 105.118 85.0885 104.732 85.7969C104.342 86.4948 103.805 87.0365 103.128 87.4219C102.446 87.7969 101.675 87.9844 100.816 87.9844C100.076 87.9844 99.4095 87.8333 98.8158 87.526C98.2324 87.224 97.7533 86.776 97.3783 86.1927V91.2344H96.1699V78.8594H97.3366V80.651C97.696 80.0573 98.1751 79.599 98.7741 79.276C99.3835 78.9583 100.066 78.7969 100.816 78.7969ZM100.732 86.901C101.357 86.901 101.925 86.7552 102.441 86.4635C102.967 86.1719 103.378 85.7656 103.67 85.2344C103.962 84.6927 104.107 84.0781 104.107 83.3802C104.107 82.7031 103.962 82.099 103.67 81.5677C103.378 81.026 102.967 80.6094 102.441 80.3177C101.925 80.0156 101.357 79.8594 100.732 79.8594C100.092 79.8594 99.5137 80.0156 99.0033 80.3177C98.4876 80.6094 98.0866 81.026 97.7949 81.5677C97.5033 82.099 97.3574 82.7031 97.3574 83.3802C97.3574 84.0781 97.5033 84.6927 97.7949 85.2344C98.0866 85.7656 98.4876 86.1719 99.0033 86.4635C99.5137 86.7552 100.092 86.901 100.732 86.901Z" fill="black"/>
<path d="M122.87 78.8594L118.349 88.9844C117.984 89.8281 117.562 90.4271 117.078 90.776C116.604 91.1354 116.026 91.3177 115.349 91.3177C114.917 91.3177 114.505 91.2448 114.12 91.1094C113.745 90.9688 113.422 90.7656 113.141 90.5052L113.724 89.5885C114.182 90.0469 114.729 90.276 115.37 90.276C115.771 90.276 116.12 90.1562 116.411 89.9219C116.714 89.6979 116.995 89.3073 117.245 88.7552L117.641 87.8802L113.599 78.8594H114.87L118.266 86.5469L121.682 78.8594H122.87Z" fill="black"/>
<path d="M144.292 75.8789H149.188C150.464 75.8789 151.589 76.1393 152.563 76.6497C153.532 77.1497 154.292 77.8581 154.834 78.7747C155.375 79.681 155.646 80.7122 155.646 81.8789C155.646 83.0456 155.375 84.0872 154.834 85.0039C154.292 85.9206 153.532 86.6393 152.563 87.1497C151.589 87.6497 150.464 87.8997 149.188 87.8997H144.292V75.8789ZM149.125 86.7956C150.177 86.7956 151.104 86.5872 151.896 86.1706C152.688 85.7539 153.297 85.181 153.729 84.4414C154.157 83.707 154.375 82.8529 154.375 81.8789C154.375 80.9206 154.157 80.0768 153.729 79.3372C153.297 78.6029 152.688 78.0247 151.896 77.6081C151.104 77.181 150.177 76.9622 149.125 76.9622H145.563V86.7956H149.125Z" fill="black"/>
<path d="M168.845 78.7969C170.022 78.7969 170.929 79.099 171.554 79.6927C172.189 80.276 172.512 81.1458 172.512 82.2969V87.901H171.345V86.4844C171.064 86.9583 170.663 87.3281 170.137 87.5885C169.606 87.8542 168.976 87.9844 168.241 87.9844C167.226 87.9844 166.418 87.75 165.825 87.276C165.226 86.7917 164.929 86.151 164.929 85.3594C164.929 84.599 165.205 83.9792 165.762 83.5052C166.314 83.0365 167.205 82.7969 168.429 82.7969H171.304V82.2552C171.304 81.4635 171.08 80.8698 170.637 80.4635C170.205 80.0625 169.575 79.8594 168.741 79.8594C168.158 79.8594 167.601 79.9583 167.075 80.151C166.559 80.3333 166.106 80.5885 165.72 80.9219L165.179 80.0052C165.637 79.6198 166.184 79.3177 166.825 79.1094C167.46 78.901 168.137 78.7969 168.845 78.7969ZM168.429 87.026C169.106 87.026 169.689 86.875 170.179 86.5677C170.679 86.25 171.054 85.7917 171.304 85.1927V83.7135H168.45C166.908 83.7135 166.137 84.25 166.137 85.3177C166.137 85.849 166.335 86.2656 166.741 86.5677C167.142 86.875 167.705 87.026 168.429 87.026Z" fill="black"/>
<path d="M190.888 78.8594L186.368 88.9844C186.003 89.8281 185.581 90.4271 185.097 90.776C184.623 91.1354 184.045 91.3177 183.368 91.3177C182.935 91.3177 182.524 91.2448 182.138 91.1094C181.763 90.9688 181.44 90.7656 181.159 90.5052L181.743 89.5885C182.201 90.0469 182.748 90.276 183.388 90.276C183.789 90.276 184.138 90.1562 184.43 89.9219C184.732 89.6979 185.013 89.3073 185.263 88.7552L185.659 87.8802L181.618 78.8594H182.888L186.284 86.5469L189.701 78.8594H190.888Z" fill="black"/>
</svg>
